HIERARCHY
ROOT Hips
{
	OFFSET 0.000000 0.000000 0.000000 
	CHANNELS 6 Xposition Yposition Zposition Zrotation Yrotation Xrotation
	JOINT LeftUpLeg
	{
		OFFSET 1.363060 -1.794630 0.839290 
		CHANNELS 3 Zrotation Yrotation Xrotation
		JOINT LeftLeg
		{
			OFFSET 2.448110 -6.726130 0.000000 
			CHANNELS 3 Zrotation Yrotation Xrotation
			JOINT LeftFoot
			{
				OFFSET 2.562200 -7.039590 0.000000 
				CHANNELS 3 Zrotation Yrotation Xrotation
				JOINT LeftToeBase
				{
					OFFSET 0.157640 -0.433110 2.322550 
					CHANNELS 3 Zrotation Yrotation Xrotation
					End Site
					{
						OFFSET 0.000000 0.000000 0.000000 
					}
				}
			}
		}
	}
	JOINT RightUpLeg
	{
		OFFSET -1.305520 -1.794630 0.839290 
		CHANNELS 3 Zrotation Yrotation Xrotation
		JOINT RightLeg
		{
			OFFSET -2.542530 -6.985550 0.000000 
			CHANNELS 3 Zrotation Yrotation Xrotation
			JOINT RightFoot
			{
				OFFSET -2.568260 -7.056230 0.000000 
				CHANNELS 3 Zrotation Yrotation Xrotation
				JOINT RightToeBase
				{
					OFFSET -0.164730 -0.452590 2.363150 
					CHANNELS 3 Zrotation Yrotation Xrotation
					End Site
					{
						OFFSET 0.000000 0.000000 0.000000 
					}
				}
			}
		}
	}
	JOINT Spine
	{
		OFFSET 0.028270 2.035590 -0.193380 
		CHANNELS 3 Zrotation Yrotation Xrotation
		JOINT Spine1
		{
			OFFSET 0.056720 2.048850 -0.042750 
			CHANNELS 3 Zrotation Yrotation Xrotation
			JOINT Neck1
			{
				OFFSET -0.054170 1.746240 0.172020 
				CHANNELS 3 Zrotation Yrotation Xrotation
				JOINT Head
				{
					OFFSET 0.104070 1.761360 -0.123970 
					CHANNELS 3 Zrotation Yrotation Xrotation
					End Site
					{
						OFFSET 0.000000 0.000000 0.000000 
					}
				}
			}
			JOINT LeftArm
			{
				OFFSET 3.362410 1.200890 -0.311210 
				CHANNELS 3 Zrotation Yrotation Xrotation
				JOINT LeftForeArm
				{
					OFFSET 4.983000 -0.000000 -0.000000 
					CHANNELS 3 Zrotation Yrotation Xrotation
					JOINT LeftHand
					{
						OFFSET 3.483560 -0.000000 -0.000000 
						CHANNELS 3 Zrotation Yrotation Xrotation
						JOINT LeftHandIndex1
						{
							OFFSET 0.715260 -0.000000 -0.000000 
							CHANNELS 3 Zrotation Yrotation Xrotation
							End Site
							{
								OFFSET 0.000000 0.000000 0.000000 
							}
						}
					}
				}
			}
			JOINT RightArm
			{
				OFFSET -3.136600 1.374050 -0.404650 
				CHANNELS 3 Zrotation Yrotation Xrotation
				JOINT RightForeArm
				{
					OFFSET -5.241900 -0.000000 -0.000000 
					CHANNELS 3 Zrotation Yrotation Xrotation
					JOINT RightHand
					{
						OFFSET -3.444170 -0.000000 -0.000000 
						CHANNELS 3 Zrotation Yrotation Xrotation
						JOINT RightHandIndex1
						{
							OFFSET -0.622530 -0.000000 -0.000000 
							CHANNELS 3 Zrotation Yrotation Xrotation
							End Site
							{
								OFFSET 0.000000 0.000000 0.000000 
							}
						}
					}
				}
			}
		}
	}
}
MOTION
Frames: 18
Frame Time: 0.041667
-2.426576 17.787872 0.981241 1.922592 -1.376118 4.721827 -9.446538 -11.006564 -8.923155 -0.043614 7.184735 22.527328 -2.409671 10.182920 -3.811313 1.784000 -8.400800 -23.938300 10.323389 6.899248 -14.454198 -2.196334 -10.699688 32.397476 -1.124667 1.237483 -10.935955 -0.170700 -2.661900 7.338800 1.379267 1.130035 -3.556057 10.150465 0.878434 -1.406988 0.531679 2.230211 15.735803 2.276500 0.013000 12.008100 13.240997 1.850943 -41.881232 23.284468 -30.639010 -11.664295 -1.075246 -2.582630 8.650053 -7.125000 0.000000 0.000000 7.824283 -9.135711 -45.458984 -22.754759 29.557123 -10.671405 2.382604 1.220511 -4.787264 7.125000 0.000000 0.000000 
-2.433056 17.791719 0.966358 1.869722 -1.284778 4.795467 -9.354327 -11.035487 -9.069444 -0.041603 7.192236 22.538631 -2.395384 10.130339 -3.772725 1.754800 -8.335500 -23.737900 10.380829 6.918372 -14.523828 -2.177932 -10.678788 32.328758 -1.078757 1.056443 -10.923027 -0.161000 -2.585100 7.125600 1.208320 1.130120 -3.537887 9.764255 0.877551 -1.372219 0.681344 2.223339 15.698496 2.326100 0.035100 12.018400 12.662900 1.886542 -41.770160 23.234777 -30.616611 -11.638915 -1.122015 -2.672733 8.268889 -7.125000 0.000000 0.000000 7.306461 -8.974201 -45.279197 -22.969176 29.747098 -10.842393 2.386162 1.212556 -4.344300 7.125000 0.000000 0.000000 
-2.437207 17.790201 0.954614 1.768414 -1.178016 4.780238 -9.226080 -11.107651 -9.093140 -0.035558 7.206823 22.577940 -2.351153 9.981479 -3.796606 1.708200 -8.229800 -23.414300 10.495862 6.842857 -14.503061 -2.158670 -10.652087 32.249661 -1.050492 0.947410 -10.916139 -0.153300 -2.523000 6.953500 1.060784 1.122375 -3.533598 9.399005 0.877548 -1.403172 0.750870 2.181022 15.589333 2.324500 0.041000 11.962100 12.052696 1.905161 -41.786386 23.175398 -30.606776 -11.633379 -1.135384 -2.713468 8.291117 -7.125000 0.000000 0.000000 6.732984 -8.814424 -45.112804 -23.178759 29.928851 -11.010939 2.385090 1.215466 -3.789837 7.125000 0.000000 0.000000 
-2.440851 17.792327 0.943983 1.475843 -1.081996 4.831530 -8.888828 -11.212945 -9.208049 -0.021455 7.236791 22.635777 -2.355187 9.986688 -3.773117 1.708100 -8.229500 -23.413400 10.807778 6.856843 -14.496666 -2.135344 -10.614068 32.157196 -1.039489 0.915268 -10.920129 -0.165200 -2.618500 7.218400 0.975176 1.124858 -3.518779 9.046158 0.878607 -1.341388 0.751863 2.217603 15.580999 2.306500 0.067900 11.960200 11.374404 1.911402 -41.893526 23.096912 -30.599243 -11.636008 -1.130329 -2.703085 8.308423 -7.125000 0.000000 0.000000 6.107541 -8.592731 -45.144575 -23.419668 30.137657 -11.203338 2.379651 1.186071 -3.113097 7.125000 0.000000 0.000000 
-2.447230 17.795668 0.931531 1.234924 -1.065635 4.831703 -8.619952 -11.250695 -9.294031 -0.005566 7.268752 22.701143 -2.381885 10.070589 -3.770152 1.732000 -8.284000 -23.580200 11.083779 6.932199 -14.450575 -2.111581 -10.576550 32.066828 -0.994813 0.763588 -10.872155 -0.157100 -2.553800 7.038800 0.882510 1.191712 -3.489386 8.745279 0.904246 -1.277167 0.982022 2.154064 15.511604 2.402800 0.061300 11.927500 10.743030 1.911690 -41.821723 22.979093 -30.554417 -11.600664 -1.139649 -2.700546 8.120448 -7.125000 0.000000 0.000000 5.466214 -8.485215 -45.098730 -23.632597 30.321852 -11.379777 2.364597 1.167735 -2.592932 7.125000 0.000000 0.000000 
-2.452190 17.797490 0.917559 1.001961 -1.005155 4.879139 -8.338878 -11.339092 -9.410714 0.009384 7.300867 22.773725 -2.363441 10.006347 -3.805571 1.693600 -8.196400 -23.312200 11.366942 6.927043 -14.492858 -2.083023 -10.538468 31.967070 -0.889984 0.339405 -10.912981 -0.112100 -2.158800 5.944800 0.756294 1.217505 -3.463052 8.380964 0.913918 -1.227303 1.194608 2.121432 15.441853 2.476500 0.079700 11.914800 10.176851 1.972033 -41.740461 22.847562 -30.489437 -11.541592 -1.147839 -2.710629 7.729261 -7.125000 0.000000 0.000000 4.963750 -8.367226 -44.926905 -23.915978 30.574245 -11.604292 2.351383 1.167670 -2.167974 7.125000 0.000000 0.000000 
-2.454722 17.797490 0.905511 0.939526 -0.885941 4.919923 -8.255999 -11.501298 -9.459047 0.018834 7.323109 22.831460 -2.366086 10.014559 -3.842482 1.639000 -8.069700 -22.926000 11.446670 6.838753 -14.555402 -2.061715 -10.513732 31.885136 -0.825565 0.063565 -10.969192 -0.079500 -1.818700 5.004800 0.607439 1.216592 -3.417946 8.027279 0.905583 -1.119915 1.432587 2.057260 15.325542 2.552700 0.089000 11.870100 9.529767 1.992956 -41.701308 22.811819 -30.520491 -11.549727 -1.166656 -2.713305 7.397064 -7.125000 0.000000 0.000000 4.454035 -8.265496 -44.799171 -24.163607 30.794295 -11.796710 2.351254 1.154435 -1.761922 7.125000 0.000000 0.000000 
-2.456544 17.798401 0.895185 0.699892 -0.758633 4.924784 -7.993865 -11.579288 -9.531091 0.034995 7.354233 22.896691 -2.380309 10.054474 -3.799301 1.662000 -8.123400 -23.089500 11.714932 6.768412 -14.528279 -2.042352 -10.481497 31.805797 -0.806280 -0.018081 -11.013495 -0.077200 -1.791900 4.930900 0.540903 1.179994 -3.376030 7.726720 0.882983 -1.015457 1.527904 2.069508 15.240176 2.588900 0.106300 11.818100 8.784423 2.117334 -41.698987 22.773481 -30.554066 -11.577140 -1.153770 -2.722462 7.189454 -7.125000 0.000000 0.000000 3.772621 -8.026398 -44.657362 -24.376686 30.973905 -11.962696 2.366928 1.159028 -1.447635 7.125000 0.000000 0.000000 
-2.460492 17.800325 0.881719 0.595614 -0.590864 4.958535 -7.857950 -11.629658 -9.669561 0.049503 7.384124 22.967311 -2.359011 9.975294 -3.677130 1.720300 -8.257500 -23.499000 11.838086 6.653165 -14.572529 -2.019206 -10.448711 31.709307 -0.746880 -0.245699 -10.987046 -0.057700 -1.550300 4.264500 0.393081 1.209745 -3.358724 7.384393 0.897358 -1.013285 1.699974 1.975420 15.261485 2.629800 0.091400 11.849100 8.198509 2.058173 -41.599783 22.684717 -30.545054 -11.543351 -1.153478 -2.736206 6.743713 -7.125000 0.000000 0.000000 3.308984 -7.994703 -44.548388 -24.679097 31.230884 -12.189182 2.368265 1.169673 -1.155730 7.125000 0.000000 0.000000 
-2.465149 17.801844 0.865723 0.303792 -0.331597 4.927609 -7.513295 -11.795331 -9.761196 0.072863 7.430453 23.071883 -2.338789 9.898198 -3.581820 1.759800 -8.346600 -23.772000 12.170884 6.545615 -14.521930 -1.992330 -10.400696 31.591384 -0.731661 -0.311212 -11.036692 -0.080600 -1.831000 5.038800 0.276361 1.190604 -3.330826 6.985710 0.888346 -1.036642 1.817610 1.940142 15.212965 2.651400 0.103200 11.853000 7.613610 2.033122 -41.509643 22.589238 -30.525988 -11.495397 -1.153020 -2.777057 6.247318 -7.125000 0.000000 0.000000 2.871400 -7.961291 -44.365811 -25.041539 31.543827 -12.467737 2.344534 1.193961 -0.962609 7.125000 0.000000 0.000000 
-2.469503 17.802552 0.853979 0.150281 -0.131213 4.991873 -7.312126 -11.900108 -9.931129 0.092120 7.471742 23.169421 -2.312922 9.806889 -3.506420 1.764600 -8.357500 -23.805400 12.340150 6.505338 -14.543370 -1.968007 -10.361867 31.482798 -0.729781 -0.335820 -11.105913 -0.092400 -1.960100 5.395300 0.165990 1.151472 -3.280152 6.688693 0.859076 -0.889296 2.105399 1.861363 15.149910 2.751500 0.105400 11.842200 6.911833 2.033190 -41.621614 22.542280 -30.554260 -11.484742 -1.170665 -2.804451 5.788058 -7.125000 0.000000 0.000000 2.359825 -7.884037 -44.031648 -25.364285 31.827443 -12.710726 2.352785 1.186587 -1.045358 7.125000 0.000000 0.000000 
-2.472641 17.803565 0.842134 -0.131120 0.035175 4.974292 -7.003418 -11.896062 -10.085471 0.121686 7.526955 23.299935 -2.290529 9.724993 -3.389458 1.800700 -8.438000 -24.052600 12.654018 6.466503 -14.480680 -1.943123 -10.316867 31.375553 -0.698401 -0.469758 -11.169933 -0.076900 -1.789300 4.923600 0.063042 1.165839 -3.251300 6.333449 0.866287 -0.883151 2.262968 1.842115 15.157135 2.788800 0.125600 11.843100 6.251001 2.034589 -41.540214 22.508734 -30.603020 -11.487397 -1.149538 -2.852871 5.015618 -7.125000 0.000000 0.000000 1.914841 -7.856515 -43.739642 -25.720186 32.134157 -12.977819 2.350583 1.184623 -1.200193 7.125000 0.000000 0.000000 
-2.475577 17.805387 0.827454 -0.200155 0.173162 5.034904 -6.901235 -11.928156 -10.297319 0.145872 7.577201 23.435681 -2.246661 9.579411 -3.363135 1.791600 -8.417800 -23.990500 12.728108 6.291608 -14.596050 -1.920590 -10.283150 31.271570 -0.657949 -0.588715 -11.027569 -0.072100 -1.732500 4.767000 -0.076580 1.175584 -3.249475 6.033315 0.875184 -0.934190 2.543191 1.786157 15.070026 2.886100 0.138700 11.802500 5.623472 2.029025 -41.425827 22.406946 -30.585550 -11.439008 -1.143182 -2.882278 4.439959 -7.125000 0.000000 0.000000 1.421733 -7.765983 -43.682011 -26.022266 32.382020 -13.212685 2.324184 1.201190 -0.956565 7.125000 0.000000 0.000000 
-2.479323 17.806805 0.811356 -0.397140 0.298549 5.085452 -6.664196 -11.964961 -10.512069 0.176975 7.637406 23.589894 -2.212441 9.463619 -3.326516 1.786000 -8.405400 -23.952400 12.947897 6.135657 -14.671873 -1.898118 -10.244381 31.167285 -0.632879 -0.643004 -10.891289 -0.065900 -1.656800 4.558200 -0.193568 1.160772 -3.229388 5.682226 0.871716 -0.911616 2.681767 1.751903 14.980859 2.915500 0.150900 11.753900 4.976042 2.107225 -41.330165 22.379424 -30.632539 -11.440881 -1.126146 -2.939021 3.814132 -7.125000 0.000000 0.000000 0.931510 -7.594913 -43.632876 -26.306782 32.621636 -13.436715 2.298797 1.202362 -0.450515 7.125000 0.000000 0.000000 
-2.482664 17.804780 0.798195 -0.617046 0.424141 5.076541 -6.404835 -12.005296 -10.647043 0.208703 7.697567 23.748668 -2.152124 9.263960 -3.309587 1.750600 -8.326000 -23.708800 13.199222 5.969866 -14.685669 -1.879849 -10.209815 31.080768 -0.624945 -0.652332 -10.835624 -0.058500 -1.560800 4.293200 -0.305213 1.173201 -3.190251 5.311819 0.879233 -0.861909 2.698842 1.768300 14.914452 2.897500 0.172800 11.710400 4.288317 2.146908 -41.244337 22.349075 -30.686587 -11.441064 -1.107600 -2.992466 3.167454 -7.125000 0.000000 0.000000 0.430855 -7.480443 -43.629893 -26.583005 32.854183 -13.653250 2.277080 1.196739 0.174893 7.125000 0.000000 0.000000 
-2.490156 17.804274 0.785033 -0.958226 0.575142 5.079693 -5.996453 -12.048689 -10.835037 0.246155 7.766614 23.914125 -2.105419 9.106256 -3.233418 1.781400 -8.395100 -23.920700 13.608088 5.964738 -14.631854 -1.858356 -10.166263 30.990815 -0.579437 -0.856984 -10.960965 -0.048600 -1.423000 3.913400 -0.407400 1.232801 -3.167287 4.942069 0.908686 -0.864874 2.881006 1.755829 14.936604 2.955200 0.193500 11.730300 3.676850 2.137742 -41.091972 22.305589 -30.731228 -11.432473 -1.077721 -3.023073 2.478829 -7.125000 0.000000 0.000000 -0.006552 -7.548817 -43.386790 -26.923262 33.129441 -13.908953 2.270538 1.224545 0.404044 7.125000 0.000000 0.000000 
-2.496332 17.804678 0.771568 -1.247705 0.715988 5.175770 -5.636863 -12.112161 -11.087220 0.276858 7.823574 24.044041 -2.072443 8.992709 -3.131468 1.796400 -8.428400 -24.023000 13.940810 5.875972 -14.730492 -1.840209 -10.132425 30.913294 -0.550465 -0.980092 -11.014137 -0.049300 -1.433500 3.942500 -0.517785 1.245062 -3.133146 4.580250 0.913385 -0.790934 3.052633 1.769844 15.001075 3.010700 0.225900 11.790900 3.055257 2.107586 -41.217657 22.226775 -30.739497 -11.395444 -1.062919 -3.034926 2.084627 -7.125000 0.000000 0.000000 -0.439036 -7.498973 -43.243494 -27.221676 33.380823 -14.145617 2.244545 1.218250 0.595809 7.125000 0.000000 0.000000 
-2.503824 17.805185 0.753952 -1.444426 0.856076 5.246098 -5.366094 -12.140887 -11.334582 0.306595 7.877897 24.172681 -2.053479 8.926587 -3.032785 1.792200 -8.419200 -23.994600 14.169222 5.938162 -14.767480 -1.823916 -10.102052 30.841518 -0.548792 -1.001381 -11.087544 -0.058600 -1.562600 4.298400 -0.604468 1.189889 -3.112836 4.314737 0.890282 -0.771164 3.212323 1.819983 14.979654 3.077300 0.264800 11.775000 2.363573 2.223577 -41.376983 22.163749 -30.755070 -11.374875 -1.051275 -3.040056 1.481135 -7.125000 0.000000 0.000000 -1.015037 -7.251846 -43.255641 -27.420473 33.552677 -14.310107 2.217282 1.186982 1.166437 7.125000 0.000000 0.000000 
